<svg width="84" height="76" viewBox="0 0 84 76" fill="none" xmlns="http://www.w3.org/2000/svg">
<path fill-rule="evenodd" clip-rule="evenodd" d="M52.3225 6.50871L82.6091 59.0717C83.2757 60.6407 83.5673 61.9164 83.6506 63.2418C83.8172 66.3383 82.7341 69.3482 80.6094 71.6644C78.4848 73.9724 75.6103 75.3348 72.4858 75.5H11.4961C10.2046 75.4215 8.91319 75.1284 7.70506 74.6743C1.66441 72.2383 -1.25177 65.3846 1.20615 59.4433L31.701 6.47155C32.7425 4.60949 34.3256 3.00341 36.2836 1.97122C41.9493 -1.17075 49.1564 0.893623 52.3225 6.50871ZM45.6153 41.1489C45.6153 43.1307 43.9906 44.7863 41.9909 44.7863C39.9913 44.7863 38.3249 43.1307 38.3249 41.1489V29.4686C38.3249 27.4827 39.9913 25.8766 41.9909 25.8766C43.9906 25.8766 45.6153 27.4827 45.6153 29.4686V41.1489ZM41.9909 58.9066C39.9913 58.9066 38.3249 57.251 38.3249 55.2733C38.3249 53.2874 39.9913 51.6359 41.9909 51.6359C43.9906 51.6359 45.6153 53.2502 45.6153 55.2279C45.6153 57.251 43.9906 58.9066 41.9909 58.9066Z" fill="#DA1E28"/>
</svg>
